<svg width="282" height="88" viewBox="0 0 282 88" fill="none" xmlns="http://www.w3.org/2000/svg">
<rect width="282" height="88" fill="#4394CB"/>
<rect x="12" y="12" width="64" height="64" rx="32" fill="white"/>
<path d="M52.6488 60C52.4429 60 52.2402 59.9265 52.0802 59.787L48.6208 56.7704C48.5078 56.6718 48.4223 56.5456 48.3729 56.404L45.0949 47.0272L42.2702 47.0271L42.2704 45.2973L45.7088 45.2976C46.0764 45.2976 46.4038 45.5301 46.5251 45.877L49.9301 55.6171L52.0591 57.4736L52.3764 55.6451L45.7782 36.7702L47.4109 36.1994L54.0833 55.2862C54.132 55.4252 54.1442 55.5744 54.1191 55.7196L53.5007 59.283C53.4474 59.5907 53.2322 59.8457 52.9378 59.9502C52.8436 59.9837 52.7458 60 52.6488 60Z" fill="#4394CB"/>
<path d="M44 34.9189C42.0924 34.9189 40.5406 33.367 40.5406 31.4595C40.5406 29.552 42.0924 28 44 28C45.9076 28 47.4594 29.5519 47.4594 31.4594C47.4594 33.3669 45.9076 34.9189 44 34.9189ZM44 29.7298C43.0462 29.7298 42.2702 30.5057 42.2702 31.4595C42.2702 32.4133 43.0462 33.1892 44 33.1892C44.9537 33.1892 45.7297 32.4133 45.7297 31.4594C45.7297 30.5056 44.9537 29.7298 44 29.7298Z" fill="#4394CB"/>
<path d="M35.3512 60C35.2542 60 35.1565 59.9838 35.0621 59.9503C34.7678 59.8458 34.5526 59.5908 34.4992 59.283L33.8809 55.7196C33.8557 55.5744 33.868 55.4253 33.9166 55.2863L40.589 36.1994C40.7465 35.7486 41.2398 35.5107 41.6907 35.6684C42.1417 35.826 42.3794 36.3193 42.2218 36.7702L35.6235 55.6451L35.9408 57.4736L38.0699 55.6171L42.382 43.2822C42.5395 42.8313 43.0328 42.5933 43.4838 42.7512C43.9347 42.9088 44.1724 43.4021 44.0147 43.8529L39.6272 56.4039C39.5777 56.5456 39.4922 56.6719 39.3792 56.7704L35.9198 59.7869C35.7598 59.9265 35.5571 60 35.3512 60Z" fill="#4394CB"/>
<path d="M47.8438 40.0262H40.1561V35.4456C40.1561 34.1542 41.2031 33.1073 42.4944 33.1073H45.5054C46.7969 33.1073 47.8437 34.1542 47.8437 35.4456V40.0262H47.8438Z" fill="white"/>
<path d="M47.8438 40.8911H40.1561C39.6786 40.8911 39.2913 40.5038 39.2913 40.0262V35.4456C39.2913 33.6794 40.7283 32.2424 42.4944 32.2424H45.5054C47.2716 32.2424 48.7086 33.6794 48.7086 35.4456V40.0262C48.7087 40.5038 48.3215 40.8911 47.8438 40.8911ZM41.0211 39.1613H46.979V35.4456C46.979 34.6331 46.318 33.9721 45.5055 33.9721H42.4946C41.682 33.9721 41.0211 34.6331 41.0211 35.4456V39.1614V39.1613Z" fill="#4394CB"/>
<path d="M53.5135 47.027H50.0541C49.5765 47.027 49.1892 46.6397 49.1892 46.1621C49.1892 45.6846 49.5765 45.2973 50.0541 45.2973H53.5135C53.9911 45.2973 54.3784 45.6846 54.3784 46.1621C54.3784 46.6397 53.9911 47.027 53.5135 47.027Z" fill="#4394CB"/>
<path d="M37.9459 47.027H34.4865C34.0089 47.027 33.6216 46.6397 33.6216 46.1621C33.6216 45.6846 34.0089 45.2973 34.4865 45.2973H37.9459C38.4235 45.2973 38.8108 45.6846 38.8108 46.1621C38.8108 46.6397 38.4235 47.027 37.9459 47.027Z" fill="#4394CB"/>
<path d="M116.08 67.08C114.8 67.4267 113.507 67.6 112.2 67.6C110.84 67.6 109.52 67.4533 108.24 67.16C106.96 66.8933 105.72 66.6 104.52 66.28C103.32 65.96 102.16 65.6533 101.04 65.36C99.92 65.0933 98.8667 64.96 97.88 64.96C97.24 64.96 96.6267 65.04 96.04 65.2V60.48C96.7867 60.32 97.56 60.24 98.36 60.24C99.48 60.24 100.587 60.3733 101.68 60.64C102.8 60.9067 103.933 61.1867 105.08 61.48C106.227 61.8 107.4 62.0933 108.6 62.36C109.8 62.6267 111.067 62.76 112.4 62.76C112.987 62.76 113.587 62.72 114.2 62.64C114.813 62.5867 115.44 62.48 116.08 62.32V67.08ZM89.52 45C89.52 40.3333 90.5467 36.7467 92.6 34.24C94.6533 31.7067 97.5867 30.44 101.4 30.44C103.4 30.44 105.147 30.7867 106.64 31.48C108.133 32.1733 109.373 33.16 110.36 34.44C111.347 35.72 112.08 37.2533 112.56 39.04C113.04 40.8267 113.28 42.8133 113.28 45C113.28 49.6667 112.24 53.2667 110.16 55.8C108.107 58.3067 105.187 59.56 101.4 59.56C99.3733 59.56 97.6133 59.2133 96.12 58.52C94.6267 57.8267 93.3867 56.84 92.4 55.56C91.44 54.28 90.72 52.7467 90.24 50.96C89.76 49.1733 89.52 47.1867 89.52 45ZM95.28 45C95.28 46.4133 95.4 47.72 95.64 48.92C95.88 50.0933 96.24 51.1067 96.72 51.96C97.2267 52.8133 97.8667 53.48 98.64 53.96C99.4133 54.44 100.333 54.68 101.4 54.68C103.347 54.68 104.853 53.92 105.92 52.4C106.987 50.88 107.52 48.4133 107.52 45C107.52 43.64 107.4 42.3733 107.16 41.2C106.947 40.0267 106.6 39 106.12 38.12C105.64 37.24 105.013 36.56 104.24 36.08C103.467 35.5733 102.52 35.32 101.4 35.32C99.4533 35.32 97.9467 36.1067 96.88 37.68C95.8133 39.2267 95.28 41.6667 95.28 45ZM132.397 31H137.597V49.08C137.597 50.8933 137.357 52.4533 136.877 53.76C136.397 55.0667 135.73 56.1467 134.877 57C134.024 57.8533 132.984 58.48 131.757 58.88C130.53 59.28 129.184 59.48 127.717 59.48C120.624 59.48 117.077 56.24 117.077 49.76V31H122.557V48.68C122.557 49.7733 122.65 50.7067 122.837 51.48C123.05 52.2267 123.37 52.84 123.797 53.32C124.224 53.7733 124.757 54.1067 125.397 54.32C126.037 54.5067 126.784 54.6 127.637 54.6C129.317 54.6 130.53 54.1333 131.277 53.2C132.024 52.2667 132.397 50.76 132.397 48.68V31ZM142.835 31H148.315V59H142.835V31ZM152.361 54.12L164.201 37.56L166.281 35.88H152.361V31H171.761V35.88L159.841 52.6L157.801 54.12H171.761V59H152.361V54.12ZM196.964 44.48L197.564 38.92H197.324L195.604 43.4L189.644 53.84H187.884L181.604 43.36L179.844 38.92H179.644L180.444 44.44V59H175.244V31H180.244L187.724 43.8L189.044 47H189.204L190.404 43.72L197.484 31H202.444V59H196.964V44.48ZM221.036 52.8H212.436L210.316 59H204.836L214.916 30.8H218.956L229.036 59H223.276L221.036 52.8ZM213.836 48.4H219.836L217.756 42.16L216.916 37.76H216.716L215.876 42.2L213.836 48.4ZM248.21 35.88H240.05V59H234.57V35.88H226.37V31H248.21V35.88ZM251.064 31H267.664V35.88H256.544V42.4H266.664V47.28H256.544V54.12H267.864V59H251.064V31Z" fill="white"/>
</svg>
