<svg width="258" height="64" viewBox="0 0 258 64" fill="none" xmlns="http://www.w3.org/2000/svg">
<rect width="64" height="64" rx="32" fill="url(#paint0_linear_2_23)"/>
<path d="M40.6488 48C40.4429 48 40.2402 47.9265 40.0802 47.787L36.6208 44.7704C36.5078 44.6718 36.4223 44.5456 36.3729 44.404L33.0949 35.0272L30.2702 35.0271L30.2704 33.2973L33.7088 33.2976C34.0764 33.2976 34.4038 33.5301 34.5251 33.877L37.9301 43.6171L40.0591 45.4736L40.3764 43.6451L33.7782 24.7702L35.4109 24.1994L42.0833 43.2862C42.132 43.4252 42.1442 43.5744 42.1191 43.7196L41.5007 47.283C41.4474 47.5907 41.2322 47.8457 40.9378 47.9502C40.8436 47.9837 40.7458 48 40.6488 48Z" fill="white"/>
<path d="M32 22.9189C30.0924 22.9189 28.5406 21.367 28.5406 19.4595C28.5406 17.552 30.0924 16 32 16C33.9076 16 35.4594 17.5519 35.4594 19.4594C35.4594 21.3669 33.9076 22.9189 32 22.9189ZM32 17.7298C31.0463 17.7298 30.2703 18.5057 30.2703 19.4595C30.2703 20.4133 31.0463 21.1892 32 21.1892C32.9538 21.1892 33.7298 20.4133 33.7298 19.4594C33.7298 18.5056 32.9538 17.7298 32 17.7298Z" fill="white"/>
<path d="M23.3512 48C23.2542 48 23.1565 47.9838 23.0621 47.9503C22.7678 47.8458 22.5526 47.5908 22.4992 47.283L21.8809 43.7196C21.8557 43.5744 21.868 43.4253 21.9166 43.2863L28.589 24.1994C28.7465 23.7486 29.2398 23.5107 29.6907 23.6684C30.1417 23.826 30.3794 24.3193 30.2218 24.7702L23.6235 43.6451L23.9408 45.4736L26.0699 43.6171L30.382 31.2822C30.5395 30.8313 31.0328 30.5933 31.4838 30.7512C31.9347 30.9088 32.1724 31.4021 32.0147 31.8529L27.6272 44.4039C27.5777 44.5456 27.4922 44.6719 27.3792 44.7704L23.9198 47.7869C23.7598 47.9265 23.5571 48 23.3512 48Z" fill="white"/>
<path d="M35.8438 28.0262H28.1561V23.4456C28.1561 22.1542 29.2031 21.1073 30.4944 21.1073H33.5054C34.7969 21.1073 35.8438 22.1543 35.8438 23.4456V28.0262H35.8438Z" fill="#4394CB"/>
<path d="M35.8438 28.8911H28.1561C27.6786 28.8911 27.2913 28.5037 27.2913 28.0262V23.4456C27.2913 21.6794 28.7283 20.2424 30.4944 20.2424H33.5054C35.2716 20.2424 36.7086 21.6794 36.7086 23.4456V28.0262C36.7087 28.5038 36.3215 28.8911 35.8438 28.8911ZM29.0211 27.1613H34.979V23.4456C34.979 22.6331 34.318 21.9721 33.5055 21.9721H30.4946C29.682 21.9721 29.0211 22.6331 29.0211 23.4456V27.1614V27.1613Z" fill="white"/>
<path d="M41.5135 35.027H38.0541C37.5765 35.027 37.1892 34.6397 37.1892 34.1621C37.1892 33.6846 37.5765 33.2972 38.0541 33.2972H41.5135C41.9911 33.2972 42.3784 33.6846 42.3784 34.1621C42.3784 34.6397 41.9911 35.027 41.5135 35.027Z" fill="white"/>
<path d="M25.9459 35.027H22.4865C22.0089 35.027 21.6216 34.6397 21.6216 34.1621C21.6216 33.6846 22.0089 33.2972 22.4865 33.2972H25.9459C26.4235 33.2972 26.8108 33.6846 26.8108 34.1621C26.8108 34.6397 26.4235 35.027 25.9459 35.027Z" fill="white"/>
<path d="M104.08 55.08C102.8 55.4267 101.507 55.6 100.2 55.6C98.84 55.6 97.52 55.4533 96.24 55.16C94.96 54.8933 93.72 54.6 92.52 54.28C91.32 53.96 90.16 53.6533 89.04 53.36C87.92 53.0933 86.8667 52.96 85.88 52.96C85.24 52.96 84.6267 53.04 84.04 53.2V48.48C84.7867 48.32 85.56 48.24 86.36 48.24C87.48 48.24 88.5867 48.3733 89.68 48.64C90.8 48.9067 91.9333 49.1867 93.08 49.48C94.2267 49.8 95.4 50.0933 96.6 50.36C97.8 50.6267 99.0667 50.76 100.4 50.76C100.987 50.76 101.587 50.72 102.2 50.64C102.813 50.5867 103.44 50.48 104.08 50.32V55.08ZM77.52 33C77.52 28.3333 78.5467 24.7467 80.6 22.24C82.6533 19.7067 85.5867 18.44 89.4 18.44C91.4 18.44 93.1467 18.7867 94.64 19.48C96.1333 20.1733 97.3733 21.16 98.36 22.44C99.3467 23.72 100.08 25.2533 100.56 27.04C101.04 28.8267 101.28 30.8133 101.28 33C101.28 37.6667 100.24 41.2667 98.16 43.8C96.1067 46.3067 93.1867 47.56 89.4 47.56C87.3733 47.56 85.6133 47.2133 84.12 46.52C82.6267 45.8267 81.3867 44.84 80.4 43.56C79.44 42.28 78.72 40.7467 78.24 38.96C77.76 37.1733 77.52 35.1867 77.52 33ZM83.28 33C83.28 34.4133 83.4 35.72 83.64 36.92C83.88 38.0933 84.24 39.1067 84.72 39.96C85.2267 40.8133 85.8667 41.48 86.64 41.96C87.4133 42.44 88.3333 42.68 89.4 42.68C91.3467 42.68 92.8533 41.92 93.92 40.4C94.9867 38.88 95.52 36.4133 95.52 33C95.52 31.64 95.4 30.3733 95.16 29.2C94.9467 28.0267 94.6 27 94.12 26.12C93.64 25.24 93.0133 24.56 92.24 24.08C91.4667 23.5733 90.52 23.32 89.4 23.32C87.4533 23.32 85.9467 24.1067 84.88 25.68C83.8133 27.2267 83.28 29.6667 83.28 33ZM120.397 19H125.597V37.08C125.597 38.8933 125.357 40.4533 124.877 41.76C124.397 43.0667 123.73 44.1467 122.877 45C122.024 45.8533 120.984 46.48 119.757 46.88C118.53 47.28 117.184 47.48 115.717 47.48C108.624 47.48 105.077 44.24 105.077 37.76V19H110.557V36.68C110.557 37.7733 110.65 38.7067 110.837 39.48C111.05 40.2267 111.37 40.84 111.797 41.32C112.224 41.7733 112.757 42.1067 113.397 42.32C114.037 42.5067 114.784 42.6 115.637 42.6C117.317 42.6 118.53 42.1333 119.277 41.2C120.024 40.2667 120.397 38.76 120.397 36.68V19ZM130.835 19H136.315V47H130.835V19ZM140.361 42.12L152.201 25.56L154.281 23.88H140.361V19H159.761V23.88L147.841 40.6L145.801 42.12H159.761V47H140.361V42.12ZM184.964 32.48L185.564 26.92H185.324L183.604 31.4L177.644 41.84H175.884L169.604 31.36L167.844 26.92H167.644L168.444 32.44V47H163.244V19H168.244L175.724 31.8L177.044 35H177.204L178.404 31.72L185.484 19H190.444V47H184.964V32.48ZM209.036 40.8H200.436L198.316 47H192.836L202.916 18.8H206.956L217.036 47H211.276L209.036 40.8ZM201.836 36.4H207.836L205.756 30.16L204.916 25.76H204.716L203.876 30.2L201.836 36.4ZM236.21 23.88H228.05V47H222.57V23.88H214.37V19H236.21V23.88ZM239.064 19H255.664V23.88H244.544V30.4H254.664V35.28H244.544V42.12H255.864V47H239.064V19Z" fill="url(#paint1_linear_2_23)"/>
<defs>
<linearGradient id="paint0_linear_2_23" x1="74" y1="9.50001" x2="-77" y2="26" gradientUnits="userSpaceOnUse">
<stop stop-color="#6CB1E9"/>
<stop offset="1" stop-color="#4A87B0"/>
</linearGradient>
<linearGradient id="paint1_linear_2_23" x1="76" y1="32" x2="258" y2="32" gradientUnits="userSpaceOnUse">
<stop stop-color="#81A6C7"/>
<stop offset="1" stop-color="#3CA9DC"/>
</linearGradient>
</defs>
</svg>
