<svg width="64" height="68" viewBox="0 0 64 68" fill="none" xmlns="http://www.w3.org/2000/svg">
<rect width="64" height="64" rx="32" fill="url(#paint0_linear_2_36)"/>
<path d="M40.6488 39C40.4429 39 40.2402 38.9265 40.0802 38.787L36.6208 35.7704C36.5078 35.6718 36.4223 35.5456 36.3729 35.404L33.0949 26.0273L30.2702 26.0271L30.2704 24.2973L33.7088 24.2976C34.0764 24.2976 34.4038 24.5301 34.5251 24.877L37.9301 34.6171L40.0591 36.4736L40.3764 34.6451L33.7782 15.7703L35.4109 15.1994L42.0833 34.2862C42.132 34.4252 42.1442 34.5744 42.1191 34.7196L41.5007 38.283C41.4474 38.5908 41.2322 38.8458 40.9378 38.9503C40.8436 38.9838 40.7458 39 40.6488 39Z" fill="white"/>
<path d="M32 13.9189C30.0924 13.9189 28.5406 12.367 28.5406 10.4595C28.5406 8.552 30.0924 7 32 7C33.9076 7 35.4594 8.55194 35.4594 10.4594C35.4594 12.3669 33.9076 13.9189 32 13.9189ZM32 8.72975C31.0463 8.72975 30.2703 9.50569 30.2703 10.4595C30.2703 11.4133 31.0463 12.1892 32 12.1892C32.9538 12.1892 33.7298 11.4133 33.7298 10.4594C33.7298 9.50563 32.9538 8.72975 32 8.72975Z" fill="white"/>
<path d="M23.3512 39C23.2542 39 23.1565 38.9838 23.0621 38.9503C22.7678 38.8458 22.5526 38.5908 22.4992 38.283L21.8809 34.7196C21.8557 34.5744 21.868 34.4253 21.9166 34.2863L28.589 15.1994C28.7465 14.7486 29.2398 14.5107 29.6907 14.6684C30.1417 14.826 30.3794 15.3193 30.2218 15.7702L23.6235 34.6451L23.9408 36.4736L26.0699 34.6171L30.382 22.2822C30.5395 21.8313 31.0328 21.5933 31.4838 21.7512C31.9347 21.9088 32.1724 22.4021 32.0147 22.8529L27.6272 35.4039C27.5777 35.5456 27.4922 35.6719 27.3792 35.7704L23.9198 38.7869C23.7598 38.9265 23.5571 39 23.3512 39Z" fill="white"/>
<path d="M35.8438 19.0262H28.1561V14.4456C28.1561 13.1542 29.2031 12.1073 30.4944 12.1073H33.5054C34.7969 12.1073 35.8438 13.1543 35.8438 14.4456V19.0262H35.8438Z" fill="#64A7DB"/>
<path d="M35.8438 19.8911H28.1561C27.6786 19.8911 27.2913 19.5038 27.2913 19.0262V14.4456C27.2913 12.6794 28.7283 11.2424 30.4944 11.2424H33.5054C35.2716 11.2424 36.7086 12.6794 36.7086 14.4456V19.0262C36.7087 19.5038 36.3215 19.8911 35.8438 19.8911ZM29.0211 18.1613H34.979V14.4456C34.979 13.6331 34.318 12.9721 33.5055 12.9721H30.4946C29.682 12.9721 29.0211 13.6331 29.0211 14.4456V18.1614V18.1613Z" fill="white"/>
<path d="M41.5135 26.027H38.0541C37.5765 26.027 37.1892 25.6397 37.1892 25.1621C37.1892 24.6846 37.5765 24.2973 38.0541 24.2973H41.5135C41.9911 24.2973 42.3784 24.6846 42.3784 25.1621C42.3784 25.6397 41.9911 26.027 41.5135 26.027Z" fill="white"/>
<path d="M25.9459 26.027H22.4865C22.0089 26.027 21.6216 25.6397 21.6216 25.1621C21.6216 24.6846 22.0089 24.2973 22.4865 24.2973H25.9459C26.4235 24.2973 26.8108 24.6846 26.8108 25.1621C26.8108 25.6397 26.4235 26.027 25.9459 26.027Z" fill="white"/>
<path d="M29.424 56.424C29.04 56.528 28.652 56.58 28.26 56.58C27.852 56.58 27.456 56.536 27.072 56.448C26.688 56.368 26.316 56.28 25.956 56.184C25.596 56.088 25.248 55.996 24.912 55.908C24.576 55.828 24.26 55.788 23.964 55.788C23.772 55.788 23.588 55.812 23.412 55.86V54.444C23.636 54.396 23.868 54.372 24.108 54.372C24.444 54.372 24.776 54.412 25.104 54.492C25.44 54.572 25.78 54.656 26.124 54.744C26.468 54.84 26.82 54.928 27.18 55.008C27.54 55.088 27.92 55.128 28.32 55.128C28.496 55.128 28.676 55.116 28.86 55.092C29.044 55.076 29.232 55.044 29.424 54.996V56.424ZM21.456 49.8C21.456 48.4 21.764 47.324 22.38 46.572C22.996 45.812 23.876 45.432 25.02 45.432C25.62 45.432 26.144 45.536 26.592 45.744C27.04 45.952 27.412 46.248 27.708 46.632C28.004 47.016 28.224 47.476 28.368 48.012C28.512 48.548 28.584 49.144 28.584 49.8C28.584 51.2 28.272 52.28 27.648 53.04C27.032 53.792 26.156 54.168 25.02 54.168C24.412 54.168 23.884 54.064 23.436 53.856C22.988 53.648 22.616 53.352 22.32 52.968C22.032 52.584 21.816 52.124 21.672 51.588C21.528 51.052 21.456 50.456 21.456 49.8ZM23.184 49.8C23.184 50.224 23.22 50.616 23.292 50.976C23.364 51.328 23.472 51.632 23.616 51.888C23.768 52.144 23.96 52.344 24.192 52.488C24.424 52.632 24.7 52.704 25.02 52.704C25.604 52.704 26.056 52.476 26.376 52.02C26.696 51.564 26.856 50.824 26.856 49.8C26.856 49.392 26.82 49.012 26.748 48.66C26.684 48.308 26.58 48 26.436 47.736C26.292 47.472 26.104 47.268 25.872 47.124C25.64 46.972 25.356 46.896 25.02 46.896C24.436 46.896 23.984 47.132 23.664 47.604C23.344 48.068 23.184 48.8 23.184 49.8ZM40.1151 49.644L40.2951 47.976H40.2231L39.7071 49.32L37.9191 52.452H37.3911L35.5071 49.308L34.9791 47.976H34.9191L35.1591 49.632V54H33.5991V45.6H35.0991L37.3431 49.44L37.7391 50.4H37.7871L38.1471 49.416L40.2711 45.6H41.7591V54H40.1151V49.644Z" fill="white"/>
<defs>
<linearGradient id="paint0_linear_2_36" x1="74" y1="9.50001" x2="-77" y2="26" gradientUnits="userSpaceOnUse">
<stop stop-color="#6CB1E9"/>
<stop offset="1" stop-color="#4A87B0"/>
</linearGradient>
</defs>
</svg>
